<?xml version="1.0" standalone="no"?>
<!DOCTYPE svg PUBLIC "-//W3C//DTD SVG 20010904//EN"
 "http://www.w3.org/TR/2001/REC-SVG-20010904/DTD/svg10.dtd">
<svg version="1.0" xmlns="http://www.w3.org/2000/svg"
 width="300.000000pt" height="300.000000pt" viewBox="0 0 300.000000 300.000000"
 preserveAspectRatio="xMidYMid meet">
<metadata>
Created by potrace 1.11, written by Peter Selinger 2001-2013
</metadata>
<g transform="translate(0.000000,300.000000) scale(0.100000,-0.100000)"
fill="#000000" stroke="none">
<path d="M1570 2434 c0 -3 4 -14 10 -24 7 -13 4 -24 -11 -44 -17 -22 -29 -26
-69 -26 -27 0 -52 -4 -55 -10 -3 -5 -14 -10 -24 -10 -11 0 -21 -10 -25 -22 -4
-18 -8 -20 -17 -11 -10 10 -19 6 -44 -16 -18 -15 -51 -37 -73 -47 -24 -11 -42
-26 -42 -35 0 -10 -18 -26 -42 -37 -24 -11 -61 -38 -82 -61 -22 -22 -52 -43
-67 -46 -27 -6 -44 -29 -33 -46 3 -5 -13 -9 -34 -9 -36 0 -40 -3 -46 -30 -3
-17 -12 -30 -20 -30 -11 0 -14 -8 -11 -29 2 -18 -2 -35 -11 -42 -22 -18 -16
-32 11 -25 30 8 31 -1 6 -32 -13 -14 -25 -20 -37 -15 -14 5 -16 2 -10 -20 4
-19 2 -27 -7 -27 -7 0 -19 -16 -25 -35 -11 -29 -11 -38 4 -60 17 -26 10 -31
-28 -16 -13 4 -35 11 -51 15 -24 6 -27 4 -27 -19 0 -17 8 -29 25 -37 14 -6 25
-15 25 -19 0 -10 -33 -20 -70 -21 -29 -1 -44 -18 -15 -18 8 0 22 -16 31 -36
15 -30 15 -37 3 -45 -11 -6 -7 -15 21 -37 29 -25 32 -32 22 -44 -10 -12 -9
-18 3 -28 18 -15 20 -80 3 -80 -8 0 -7 -4 3 -10 10 -6 15 -22 13 -49 -1 -23 2
-41 7 -41 5 0 9 -10 9 -22 0 -23 -46 -58 -75 -58 -7 0 -15 -7 -19 -15 -6 -17
15 -20 30 -5 14 14 59 -3 67 -24 4 -9 2 -16 -3 -16 -6 0 -10 -4 -10 -10 0 -17
17 -11 26 10 8 19 11 18 34 -17 14 -21 32 -38 40 -38 10 0 14 -8 12 -21 -2
-16 5 -24 26 -32 16 -5 46 -31 67 -56 20 -25 41 -43 46 -40 5 3 35 -21 66 -53
l58 -58 3 68 c2 37 7 67 12 67 6 0 10 -4 10 -10 0 -5 6 -7 13 -4 8 3 18 -6 25
-21 6 -14 18 -25 26 -25 8 0 23 -27 36 -69 22 -66 25 -69 51 -66 17 2 30 -2
33 -11 4 -11 11 -11 32 -4 18 7 30 7 39 0 20 -17 28 6 9 24 -11 12 -12 16 -2
16 33 0 58 -14 58 -31 0 -19 19 -22 32 -4 4 5 10 2 14 -8 4 -11 17 -17 39 -17
36 0 58 19 49 43 -3 8 -1 18 5 21 12 8 17 -12 26 -96 4 -38 11 -58 20 -58 15
0 40 55 30 69 -3 6 -1 11 5 11 5 0 18 -16 27 -35 9 -19 20 -35 25 -35 13 0 9
38 -4 43 -10 4 -10 7 0 18 9 10 15 10 24 1 7 -7 20 -12 30 -12 10 0 18 -5 18
-12 0 -22 16 6 29 50 7 24 10 47 6 50 -8 8 -38 -11 -43 -28 -3 -7 0 -10 7 -6
16 10 14 -19 -2 -33 -16 -13 -74 6 -82 27 -5 13 26 87 35 82 3 -2 15 2 26 8
19 10 23 9 27 -8 4 -16 14 -20 46 -20 76 0 101 26 101 104 0 13 12 31 28 43
15 11 36 35 46 53 l19 33 -24 -6 c-13 -4 -80 -10 -148 -14 l-123 -6 6 44 c3
24 8 76 12 114 4 39 11 75 16 82 5 7 7 17 4 22 -14 23 -8 109 10 136 24 36 22
98 -5 208 -13 48 -20 95 -17 103 11 28 146 11 222 -29 18 -9 46 -31 63 -48 18
-17 35 -28 39 -25 3 4 0 11 -8 16 -8 5 -11 12 -8 16 4 4 19 -1 34 -11 19 -12
25 -13 22 -3 -2 7 -21 24 -41 37 -20 13 -37 30 -37 38 0 7 -9 13 -20 13 -12 0
-20 7 -20 16 0 9 -9 28 -21 42 -15 20 -19 35 -14 59 4 25 2 33 -9 33 -8 0 -18
-4 -21 -10 -8 -13 -45 -13 -45 -1 0 5 5 11 11 13 6 2 2 13 -9 26 -23 27 -62
30 -62 5 -1 -14 -6 -12 -25 10 -30 34 -32 47 -5 40 11 -3 17 -9 14 -14 -3 -5
2 -9 11 -9 20 0 40 49 25 64 -8 8 -12 4 -16 -12 -4 -12 -11 -22 -16 -22 -13 0
-91 43 -100 55 -13 17 -9 35 8 35 26 0 9 25 -19 28 -15 2 -27 9 -27 16 0 19
47 66 66 66 13 0 14 3 5 13 -8 11 -5 19 13 36 15 15 26 19 31 12 4 -8 11 -6
21 4 9 8 21 15 29 15 22 0 84 -64 87 -90 2 -18 12 -28 35 -35 27 -7 32 -13 28
-32 -2 -13 1 -23 6 -23 5 0 9 7 9 16 0 13 7 15 34 10 25 -5 35 -3 40 9 4 12
-3 15 -38 15 -44 0 -66 15 -80 53 -4 14 0 20 14 24 11 3 20 9 20 14 0 13 -24
11 -39 -3 -10 -11 -18 -6 -41 21 -16 19 -27 37 -25 41 5 8 -62 70 -76 70 -5 0
-9 5 -9 10 0 21 -41 51 -61 45 -20 -7 -114 19 -136 38 -9 6 -18 6 -27 -2 -22
-19 -42 10 -45 65 -1 26 -4 51 -7 56 -6 9 -24 11 -24 2z m5 -553 c-3 -5 2 -29
10 -53 9 -24 19 -50 21 -59 4 -11 -6 -19 -38 -28 -49 -15 -135 -57 -162 -80
-10 -9 -34 -41 -53 -71 -19 -30 -48 -68 -63 -85 -29 -30 -56 -85 -42 -85 4 0
13 9 20 20 16 27 31 25 25 -2 -2 -13 9 2 27 32 32 56 82 114 112 131 10 5 39
13 64 18 39 7 49 6 65 -10 20 -20 79 -143 79 -165 0 -7 -27 -38 -60 -70 -68
-64 -111 -142 -121 -219 -4 -27 -11 -77 -16 -110 -5 -33 -6 -77 -2 -98 4 -25
2 -40 -5 -43 -20 -7 -69 12 -80 31 -6 11 -16 24 -22 30 -6 5 -20 32 -30 58
-12 31 -27 52 -41 58 -13 5 -23 17 -23 28 0 14 -5 19 -15 15 -9 -4 -18 1 -22
12 -4 11 -16 32 -27 47 -17 24 -21 42 -19 110 1 61 -3 86 -14 99 -14 16 -14
18 8 26 13 5 23 12 22 16 -2 3 -3 12 -2 19 0 6 5 -1 10 -18 5 -16 6 -37 3 -45
-4 -11 -2 -12 6 -4 17 17 1 94 -20 94 -12 0 -17 8 -17 25 0 29 17 46 18 18 0
-14 2 -13 10 5 5 13 6 29 2 35 -4 7 -9 22 -11 35 -2 16 2 22 17 22 17 0 19 5
14 35 -4 23 -2 35 6 35 6 0 11 9 11 20 0 11 4 20 8 20 5 0 15 11 22 25 16 30
59 50 124 60 31 4 63 17 85 35 33 26 57 35 104 39 10 0 16 -3 12 -8z m257 -50
c5 -17 13 -31 18 -31 6 0 10 -11 10 -23 0 -20 5 -24 31 -22 22 1 35 -4 46 -21
8 -13 19 -22 23 -19 8 5 60 -55 60 -69 0 -3 -13 0 -29 9 -29 14 -109 46 -216
85 -49 18 -50 19 -47 57 2 21 10 45 18 53 12 12 14 11 14 -13 0 -15 4 -27 10
-27 5 0 7 7 4 15 -4 9 0 15 7 15 12 0 12 2 0 9 -21 14 -4 31 21 22 13 -5 26
-21 30 -40z m-1042 -338 c0 -31 -18 -65 -31 -58 -5 4 -9 1 -9 -5 0 -6 -4 -9
-9 -5 -6 3 -10 22 -9 43 0 20 -1 42 -2 47 -5 21 1 24 30 14 22 -8 30 -17 30
-36z m919 -389 c18 -125 20 -188 8 -200 -3 -3 -16 -6 -29 -6 -13 1 -58 1 -101
1 -88 1 -99 10 -72 60 9 18 21 69 26 114 12 92 17 106 44 121 11 6 35 21 54
33 20 13 39 19 43 15 5 -5 17 -66 27 -138z m201 -364 c-11 -21 -22 -25 -33
-13 -9 9 12 33 30 33 11 0 11 -4 3 -20z"/>
<path d="M1227 1644 c-11 -11 -8 -44 3 -44 15 0 24 30 13 41 -5 5 -12 6 -16 3z"/>
<path d="M1265 1590 c3 -5 8 -10 11 -10 2 0 4 5 4 10 0 6 -5 10 -11 10 -5 0
-7 -4 -4 -10z"/>
<path d="M1303 1585 c0 -18 19 -15 25 3 2 7 -3 12 -10 12 -8 0 -15 -7 -15 -15z"/>
<path d="M1340 1470 c0 -6 10 -8 24 -4 13 3 27 1 30 -5 4 -6 17 -11 29 -11 20
0 19 2 -7 15 -32 17 -76 20 -76 5z"/>
<path d="M1464 1451 c3 -5 14 -7 24 -4 10 2 24 -3 31 -11 8 -9 18 -16 24 -16
5 0 -2 9 -16 20 -25 20 -73 28 -63 11z"/>
<path d="M1201 1334 c0 -11 3 -14 6 -6 3 7 2 16 -1 19 -3 4 -6 -2 -5 -13z"/>
<path d="M1273 1114 c0 -9 5 -10 19 -3 10 5 18 12 18 14 0 2 -8 3 -18 2 -10 0
-19 -7 -19 -13z"/>
<path d="M1699 944 c-1 -5 -1 -12 0 -16 0 -4 -5 -5 -13 -2 -8 3 -17 1 -21 -5
-3 -7 2 -11 15 -11 20 0 38 25 26 37 -3 4 -7 2 -7 -3z"/>
<path d="M1456 2381 c-4 -7 -5 -15 -2 -18 9 -9 19 4 14 18 -4 11 -6 11 -12 0z"/>
<path d="M2000 2289 c0 -5 5 -7 10 -4 6 3 10 8 10 11 0 2 -4 4 -10 4 -5 0 -10
-5 -10 -11z"/>
<path d="M1932 2273 c-22 -4 -23 -5 -5 -18 24 -19 50 -19 57 1 10 26 6 28 -52
17z"/>
<path d="M1910 2015 c0 -8 4 -15 10 -15 5 0 7 7 4 15 -4 8 -8 15 -10 15 -2 0
-4 -7 -4 -15z"/>
<path d="M1980 1840 c0 -5 5 -10 11 -10 5 0 7 5 4 10 -3 6 -8 10 -11 10 -2 0
-4 -4 -4 -10z"/>
<path d="M816 1825 c-3 -8 -1 -15 4 -15 6 0 10 7 10 15 0 8 -2 15 -4 15 -2 0
-6 -7 -10 -15z"/>
<path d="M660 1090 c0 -5 5 -10 10 -10 6 0 10 5 10 10 0 6 -4 10 -10 10 -5 0
-10 -4 -10 -10z"/>
<path d="M1206 739 c-7 -37 -3 -44 19 -36 19 8 20 41 1 56 -11 9 -15 5 -20
-20z"/>
<path d="M1470 590 c0 -5 5 -10 10 -10 6 0 10 5 10 10 0 6 -4 10 -10 10 -5 0
-10 -4 -10 -10z"/>
<path d="M1887 583 c-4 -3 -7 -11 -7 -17 0 -6 5 -4 10 4 8 12 13 11 33 -8 13
-12 27 -22 33 -22 5 0 -4 11 -20 25 -31 26 -38 29 -49 18z"/>
<path d="M1645 500 c-3 -5 -1 -10 4 -10 6 0 11 5 11 10 0 6 -2 10 -4 10 -3 0
-8 -4 -11 -10z"/>
</g>
</svg>
